<svg width="28" height="23" viewBox="0 0 28 23" fill="none" xmlns="http://www.w3.org/2000/svg">
<path d="M20.2406 0C19.7639 0 19.2689 0.0462404 18.7555 0.138721C18.2422 0.231202 17.738 0.38842 17.243 0.610374C16.7663 0.38842 16.2529 0.231202 15.7029 0.138721C15.1529 0.0462404 14.6121 0 14.0804 0C13.5487 0 13.0079 0.0462404 12.4578 0.138721C11.9078 0.231202 11.3945 0.38842 10.9178 0.610374C10.4228 0.38842 9.9186 0.231202 9.40526 0.138721C8.89191 0.0462404 8.3969 0 7.92022 0C6.94852 0 5.986 0.175714 5.03264 0.527141C4.09761 0.878569 3.25426 1.38721 2.50257 2.05308C1.75088 2.71894 1.14586 3.53277 0.687519 4.49457C0.229173 5.45637 0 6.52915 0 7.71291C0 8.82268 0.339176 10.0619 1.01753 11.4306C1.71421 12.7809 2.4934 14.0756 3.35509 15.3148C4.21678 16.5356 5.0418 17.5991 5.83016 18.5054C6.61851 19.4117 7.11353 19.9574 7.3152 20.1423C7.38854 20.2348 7.47104 20.3088 7.56271 20.3643C7.67271 20.4013 7.79188 20.4198 7.92022 20.4198C8.04855 20.4198 8.15856 20.4013 8.25023 20.3643C8.36023 20.3088 8.4519 20.2348 8.52523 20.1423C8.52523 20.1423 8.66274 19.9851 8.93775 19.6707C9.21275 19.3563 9.55193 18.9586 9.95527 18.4777C10.7803 19.6614 11.532 20.6602 12.2103 21.4741C12.907 22.2694 13.292 22.6856 13.3654 22.7226C13.457 22.815 13.5579 22.889 13.6679 22.9445C13.7962 22.9815 13.9062 23 13.9979 23C14.0896 23 14.1996 22.9815 14.3279 22.9445C14.4746 22.889 14.5662 22.815 14.6029 22.7226C14.6946 22.6301 15.0704 22.1862 15.7304 21.3908C16.3904 20.5955 17.1605 19.6244 18.0405 18.4777C18.4438 18.9586 18.7738 19.347 19.0305 19.6429C19.3055 19.9389 19.443 20.1053 19.443 20.1423C19.5347 20.2348 19.6355 20.3088 19.7455 20.3643C19.8739 20.4013 19.9839 20.4198 20.0756 20.4198C20.1489 20.4198 20.2406 20.4013 20.3506 20.3643C20.4789 20.3088 20.5889 20.2348 20.6806 20.1423C20.8639 19.9574 21.3406 19.421 22.1106 18.5332C22.899 17.6269 23.724 16.5633 24.5857 15.3426C25.4657 14.1218 26.2541 12.8363 26.9507 11.4861C27.6474 10.1174 27.9958 8.85967 27.9958 7.71291C28.0324 6.52915 27.8308 5.45637 27.3908 4.49457C26.9507 3.53277 26.3641 2.71894 25.6307 2.05308C24.8973 1.38721 24.054 0.878569 23.1006 0.527141C22.1656 0.175714 21.2122 0 20.2406 0ZM7.92022 18.2002C7.3702 17.5714 6.73768 16.813 6.02267 15.9252C5.32598 15.0189 4.65679 14.0756 4.01511 13.0953C3.39176 12.115 2.86008 11.1532 2.42007 10.2099C1.98005 9.26659 1.76005 8.43426 1.76005 7.71291C1.76005 6.7881 1.93422 5.95577 2.28256 5.21592C2.64924 4.47608 3.12592 3.85645 3.7126 3.35706C4.29928 2.83916 4.9593 2.45074 5.69266 2.1918C6.42601 1.91435 7.16853 1.77563 7.92022 1.77563C8.04855 1.77563 8.15856 1.77563 8.25023 1.77563C8.36023 1.77563 8.48857 1.77563 8.63524 1.77563C7.66354 2.53398 6.85685 3.48653 6.21517 4.63329C5.59182 5.76156 5.28014 7.05629 5.28014 8.51749C5.28014 9.12786 5.38098 9.78448 5.58265 10.4873C5.78433 11.1717 6.05017 11.8838 6.38017 12.6236C6.72852 13.345 7.12269 14.0756 7.56271 14.8154C8.02105 15.5553 8.48857 16.2674 8.96525 16.9517C8.74524 17.2292 8.54357 17.4604 8.36023 17.6454C8.19522 17.8303 8.04855 18.0153 7.92022 18.2002ZM14.0804 20.8637C13.457 20.1238 12.742 19.2268 11.9353 18.1725C11.1286 17.0997 10.3586 15.9899 9.62526 14.8432C8.91024 13.6779 8.29606 12.5404 7.78271 11.4306C7.2877 10.3209 7.04019 9.34982 7.04019 8.51749C7.04019 7.46321 7.24187 6.5199 7.64521 5.68758C8.06689 4.83675 8.60774 4.12465 9.26775 3.55127C9.92777 2.97789 10.6795 2.54322 11.5228 2.24729C12.3662 1.93285 13.2187 1.77563 14.0804 1.77563C14.5571 1.77563 15.0337 1.82187 15.5104 1.91435C15.9871 2.00684 16.4454 2.13631 16.8855 2.30277C16.8855 2.30277 16.9038 2.30277 16.9405 2.30277C16.9771 2.30277 16.9955 2.30277 16.9955 2.30277C18.1322 2.80217 19.1039 3.56976 19.9105 4.60555C20.7172 5.64134 21.1206 6.91757 21.1206 8.43426C21.1206 8.91516 21.0197 9.47004 20.8181 10.0989C20.6164 10.7093 20.3414 11.3567 19.993 12.041C19.663 12.7254 19.278 13.4282 18.838 14.1496C18.4163 14.8524 17.9763 15.5553 17.518 16.2581C17.463 16.2951 17.4171 16.3414 17.3805 16.3969C17.3438 16.4524 17.3255 16.5171 17.3255 16.5911C16.7205 17.4419 16.1338 18.2372 15.5654 18.9771C15.0154 19.6984 14.5204 20.3273 14.0804 20.8637ZM20.2406 18.2002C20.1122 18.0153 19.9564 17.8303 19.773 17.6454C19.608 17.4604 19.4155 17.2292 19.1955 16.9517C19.6722 16.2674 20.1306 15.5553 20.5706 14.8154C21.0289 14.0756 21.4231 13.345 21.7531 12.6236C22.1014 11.8838 22.3764 11.1717 22.5781 10.4873C22.7798 9.78448 22.8806 9.12786 22.8806 8.51749C22.8806 7.05629 22.5598 5.76156 21.9181 4.63329C21.2948 3.50503 20.4972 2.58022 19.5255 1.85887C19.6722 1.85887 19.7914 1.85887 19.883 1.85887C19.993 1.85887 20.1122 1.85887 20.2406 1.85887C20.9922 1.85887 21.7348 1.99759 22.4681 2.27503C23.2015 2.53398 23.8615 2.9224 24.4482 3.44029C25.0349 3.95818 25.5024 4.58705 25.8507 5.3269C26.2174 6.04825 26.4007 6.88058 26.4007 7.82388C26.4007 8.50824 26.1807 9.32207 25.7407 10.2654C25.319 11.1902 24.7873 12.1427 24.1457 13.123C23.5223 14.0848 22.8531 15.0189 22.1381 15.9252C21.4231 16.813 20.7906 17.5714 20.2406 18.2002ZM17.6005 8.87817C17.6005 7.89787 17.2521 7.06554 16.5555 6.38118C15.8771 5.67833 15.0521 5.3269 14.0804 5.3269C13.1087 5.3269 12.2745 5.67833 11.5778 6.38118C10.8995 7.06554 10.5603 7.89787 10.5603 8.87817C10.5603 9.85846 10.8995 10.7 11.5778 11.4029C12.2745 12.0873 13.1087 12.4294 14.0804 12.4294C15.0521 12.4294 15.8771 12.0873 16.5555 11.4029C17.2521 10.7 17.6005 9.85846 17.6005 8.87817ZM14.0804 10.6538C13.6037 10.6538 13.1912 10.4781 12.8429 10.1267C12.4945 9.77523 12.3203 9.35907 12.3203 8.87817C12.3203 8.39727 12.4945 7.9811 12.8429 7.62967C13.1912 7.27825 13.6037 7.10253 14.0804 7.10253C14.5571 7.10253 14.9696 7.27825 15.3179 7.62967C15.6663 7.9811 15.8404 8.39727 15.8404 8.87817C15.8404 9.35907 15.6663 9.77523 15.3179 10.1267C14.9696 10.4781 14.5571 10.6538 14.0804 10.6538Z" fill="#FFE400"/>
</svg>
