<svg width="28" height="29" viewBox="0 0 28 29" fill="none" xmlns="http://www.w3.org/2000/svg">
<path d="M14 0.75C12.0677 0.75 10.2539 1.1237 8.55859 1.87109C6.86328 2.60026 5.3776 3.60286 4.10156 4.87891C2.84375 6.13672 1.84115 7.61328 1.09375 9.30859C0.364583 11.0039 0 12.8177 0 14.75C0 16.6823 0.364583 18.4961 1.09375 20.1914C1.84115 21.8867 2.84375 23.3724 4.10156 24.6484C5.3776 25.9062 6.86328 26.8997 8.55859 27.6289C10.2539 28.3763 12.0677 28.75 14 28.75C15.9323 28.75 17.7461 28.3763 19.4414 27.6289C21.1367 26.8997 22.6133 25.9062 23.8711 24.6484C25.1471 23.3724 26.1497 21.8867 26.8789 20.1914C27.6263 18.4961 28 16.6823 28 14.75C28 12.8177 27.6263 11.0039 26.8789 9.30859C26.1497 7.61328 25.1471 6.13672 23.8711 4.87891C22.6133 3.60286 21.1367 2.60026 19.4414 1.87109C17.7461 1.1237 15.9323 0.75 14 0.75ZM14.875 26.9453V23.5C14.875 23.263 14.7839 23.0625 14.6016 22.8984C14.4375 22.7161 14.237 22.625 14 22.625C13.763 22.625 13.5534 22.7161 13.3711 22.8984C13.207 23.0625 13.125 23.263 13.125 23.5V26.9453C11.612 26.8359 10.1901 26.4714 8.85938 25.8516C7.52865 25.2318 6.35286 24.4206 5.33203 23.418C4.32943 22.3971 3.51823 21.2214 2.89844 19.8906C2.27865 18.5599 1.91406 17.138 1.80469 15.625H5.25C5.48698 15.625 5.6875 15.543 5.85156 15.3789C6.03385 15.1966 6.125 14.987 6.125 14.75C6.125 14.513 6.03385 14.3125 5.85156 14.1484C5.6875 13.9661 5.48698 13.875 5.25 13.875H1.80469C1.91406 12.362 2.27865 10.9401 2.89844 9.60938C3.51823 8.27865 4.32943 7.11198 5.33203 6.10938C6.35286 5.08854 7.52865 4.26823 8.85938 3.64844C10.1901 3.02865 11.612 2.66406 13.125 2.55469V6C13.125 6.23698 13.207 6.44661 13.3711 6.62891C13.5534 6.79297 13.763 6.875 14 6.875C14.237 6.875 14.4375 6.79297 14.6016 6.62891C14.7839 6.44661 14.875 6.23698 14.875 6V2.55469C16.388 2.66406 17.8099 3.02865 19.1406 3.64844C20.4714 4.26823 21.638 5.08854 22.6406 6.10938C23.6615 7.11198 24.4818 8.27865 25.1016 9.60938C25.7214 10.9401 26.0859 12.362 26.1953 13.875H22.75C22.513 13.875 22.3034 13.9661 22.1211 14.1484C21.957 14.3125 21.875 14.513 21.875 14.75C21.875 14.987 21.957 15.1966 22.1211 15.3789C22.3034 15.543 22.513 15.625 22.75 15.625H26.1953C26.0859 17.138 25.7214 18.5599 25.1016 19.8906C24.4818 21.2214 23.6615 22.3971 22.6406 23.418C21.638 24.4206 20.4714 25.2318 19.1406 25.8516C17.8099 26.4714 16.388 26.8359 14.875 26.9453ZM19.25 13.875H14.4375L9.46094 7.23047C9.3151 7.02995 9.11458 6.91146 8.85938 6.875C8.6224 6.83854 8.41276 6.89323 8.23047 7.03906C8.02995 7.1849 7.91146 7.38542 7.875 7.64062C7.83854 7.8776 7.89323 8.08724 8.03906 8.26953L13.2891 15.2695C13.3802 15.3789 13.4805 15.4701 13.5898 15.543C13.7174 15.5977 13.8542 15.625 14 15.625H19.25C19.487 15.625 19.6875 15.543 19.8516 15.3789C20.0339 15.1966 20.125 14.987 20.125 14.75C20.125 14.513 20.0339 14.3125 19.8516 14.1484C19.6875 13.9661 19.487 13.875 19.25 13.875Z" fill="#FFE400"/>
</svg>
