<svg width="25" height="28" viewBox="0 0 25 28" fill="none" xmlns="http://www.w3.org/2000/svg">
<path d="M25 0.875C25 0.619792 24.9163 0.410156 24.7489 0.246094C24.5815 0.0820312 24.3676 0 24.1071 0H0.892857C0.63244 0 0.418527 0.0820312 0.251116 0.246094C0.0837054 0.410156 0 0.619792 0 0.875V27.125C0 27.3802 0.0837054 27.5898 0.251116 27.7539C0.418527 27.918 0.63244 28 0.892857 28H24.1071C24.3676 28 24.5815 27.918 24.7489 27.7539C24.9163 27.5898 25 27.3802 25 27.125V0.875ZM23.2143 26.25H1.78571V1.75H23.2143V26.25ZM4.46429 7.875H20.5357C20.7961 7.875 21.01 7.79297 21.1775 7.62891C21.3449 7.46484 21.4286 7.25521 21.4286 7V4.375C21.4286 4.11979 21.3449 3.91016 21.1775 3.74609C21.01 3.58203 20.7961 3.5 20.5357 3.5H4.46429C4.20387 3.5 3.98996 3.58203 3.82254 3.74609C3.65513 3.91016 3.57143 4.11979 3.57143 4.375V7C3.57143 7.25521 3.65513 7.46484 3.82254 7.62891C3.98996 7.79297 4.20387 7.875 4.46429 7.875ZM5.35714 5.25H19.6429V6.125H5.35714V5.25ZM4.46429 14H8.03571C8.29613 14 8.51004 13.918 8.67745 13.7539C8.84487 13.5898 8.92857 13.3802 8.92857 13.125V10.5C8.92857 10.2448 8.84487 10.0352 8.67745 9.87109C8.51004 9.70703 8.29613 9.625 8.03571 9.625H4.46429C4.20387 9.625 3.98996 9.70703 3.82254 9.87109C3.65513 10.0352 3.57143 10.2448 3.57143 10.5V13.125C3.57143 13.3802 3.65513 13.5898 3.82254 13.7539C3.98996 13.918 4.20387 14 4.46429 14ZM5.35714 11.375H7.14286V12.25H5.35714V11.375ZM14.2857 9.625H10.7143C10.4539 9.625 10.24 9.70703 10.0725 9.87109C9.90513 10.0352 9.82143 10.2448 9.82143 10.5V13.125C9.82143 13.3802 9.90513 13.5898 10.0725 13.7539C10.24 13.918 10.4539 14 10.7143 14H14.2857C14.5461 14 14.76 13.918 14.9275 13.7539C15.0949 13.5898 15.1786 13.3802 15.1786 13.125V10.5C15.1786 10.2448 15.0949 10.0352 14.9275 9.87109C14.76 9.70703 14.5461 9.625 14.2857 9.625ZM13.3929 12.25H11.6071V11.375H13.3929V12.25ZM20.5357 9.625H16.9643C16.7039 9.625 16.49 9.70703 16.3225 9.87109C16.1551 10.0352 16.0714 10.2448 16.0714 10.5V13.125C16.0714 13.3802 16.1551 13.5898 16.3225 13.7539C16.49 13.918 16.7039 14 16.9643 14H20.5357C20.7961 14 21.01 13.918 21.1775 13.7539C21.3449 13.5898 21.4286 13.3802 21.4286 13.125V10.5C21.4286 10.2448 21.3449 10.0352 21.1775 9.87109C21.01 9.70703 20.7961 9.625 20.5357 9.625ZM19.6429 12.25H17.8571V11.375H19.6429V12.25ZM4.46429 19.25H8.03571C8.29613 19.25 8.51004 19.168 8.67745 19.0039C8.84487 18.8398 8.92857 18.6302 8.92857 18.375V15.75C8.92857 15.4948 8.84487 15.2852 8.67745 15.1211C8.51004 14.957 8.29613 14.875 8.03571 14.875H4.46429C4.20387 14.875 3.98996 14.957 3.82254 15.1211C3.65513 15.2852 3.57143 15.4948 3.57143 15.75V18.375C3.57143 18.6302 3.65513 18.8398 3.82254 19.0039C3.98996 19.168 4.20387 19.25 4.46429 19.25ZM5.35714 16.625H7.14286V17.5H5.35714V16.625ZM14.2857 14.875H10.7143C10.4539 14.875 10.24 14.957 10.0725 15.1211C9.90513 15.2852 9.82143 15.4948 9.82143 15.75V18.375C9.82143 18.6302 9.90513 18.8398 10.0725 19.0039C10.24 19.168 10.4539 19.25 10.7143 19.25H14.2857C14.5461 19.25 14.76 19.168 14.9275 19.0039C15.0949 18.8398 15.1786 18.6302 15.1786 18.375V15.75C15.1786 15.4948 15.0949 15.2852 14.9275 15.1211C14.76 14.957 14.5461 14.875 14.2857 14.875ZM13.3929 17.5H11.6071V16.625H13.3929V17.5ZM4.46429 24.5H8.03571C8.29613 24.5 8.51004 24.418 8.67745 24.2539C8.84487 24.0898 8.92857 23.8802 8.92857 23.625V21C8.92857 20.7448 8.84487 20.5352 8.67745 20.3711C8.51004 20.207 8.29613 20.125 8.03571 20.125H4.46429C4.20387 20.125 3.98996 20.207 3.82254 20.3711C3.65513 20.5352 3.57143 20.7448 3.57143 21V23.625C3.57143 23.8802 3.65513 24.0898 3.82254 24.2539C3.98996 24.418 4.20387 24.5 4.46429 24.5ZM5.35714 21.875H7.14286V22.75H5.35714V21.875ZM14.2857 20.125H10.7143C10.4539 20.125 10.24 20.207 10.0725 20.3711C9.90513 20.5352 9.82143 20.7448 9.82143 21V23.625C9.82143 23.8802 9.90513 24.0898 10.0725 24.2539C10.24 24.418 10.4539 24.5 10.7143 24.5H14.2857C14.5461 24.5 14.76 24.418 14.9275 24.2539C15.0949 24.0898 15.1786 23.8802 15.1786 23.625V21C15.1786 20.7448 15.0949 20.5352 14.9275 20.3711C14.76 20.207 14.5461 20.125 14.2857 20.125ZM13.3929 22.75H11.6071V21.875H13.3929V22.75ZM20.5357 14.875H16.9643C16.7039 14.875 16.49 14.957 16.3225 15.1211C16.1551 15.2852 16.0714 15.4948 16.0714 15.75V23.625C16.0714 23.8802 16.1551 24.0898 16.3225 24.2539C16.49 24.418 16.7039 24.5 16.9643 24.5H20.5357C20.7961 24.5 21.01 24.418 21.1775 24.2539C21.3449 24.0898 21.4286 23.8802 21.4286 23.625V15.75C21.4286 15.4948 21.3449 15.2852 21.1775 15.1211C21.01 14.957 20.7961 14.875 20.5357 14.875ZM19.6429 22.75H17.8571V16.625H19.6429V22.75Z" fill="#FFE400"/>
</svg>
