<svg height="512pt" viewBox="0 0 512 512.00011" width="512pt" xmlns="http://www.w3.org/2000/svg"><path d="m462.171875 198.21875c2.019531-5.820312 4.226563-11.566406 6.667969-17.203125 51.410156-118.917969-70.542969-225.695313-178.425782-161.941406-21.535156 12.714843-48.292968 12.714843-69.820312.003906-106.914062-63.183594-229.117188 41.449219-178.992188 160.597656 2.59375 6.175781 4.925782 12.429688 7.042969 18.730469-27.671875 5.320312-48.644531 29.679688-48.644531 58.855469v239.742187c0 8.28125 6.714844 14.996094 15 14.996094h482c8.285156 0 15-6.714844 15-14.996094v-239.722656c0-29.585938-21.574219-54.21875-49.828125-59.0625zm-256.839844-153.316406c30.945313 18.269531 69.390625 18.269531 100.339844-.003906 82.808594-48.9375 175.566406 31.835937 135.632813 124.210937-56.683594 130.972656 20.253906 207.191406-65.957032 267.949219h-4.191406c8.613281-40.007813 18.84375-95.742188 18.84375-134.828125 0-28.351563-8.863281-56.511719-26.488281-80.296875 2.132812-8.445313 7.597656-24.71875 20.300781-39.140625 5.472656-6.21875 4.871094-15.695313-1.34375-21.167969-6.21875-5.472656-15.699219-4.871094-21.171875 1.34375-7.660156 8.699219-13.328125 17.828125-17.511719 26.296875-6.589844-15.394531-9.632812-31.800781-1.5625-43.148437 4.804688-6.75 3.222656-16.113282-3.527344-20.914063s-16.117187-3.222656-20.917968 3.527344c-7.320313 10.289062-13.472656 26.460937-8.753906 49.890625-3.683594-1.601563-7.457032-3.070313-11.328126-4.359375-7.863281-2.617188-16.355468 1.632812-18.972656 9.492187-2.613281 7.859375 1.636719 16.351563 9.496094 18.96875 42.152344 14.023438 71.78125 53.582032 71.78125 99.507813 0 38.214843-11.015625 95.792969-19.589844 134.828125h-10.410156v-73.964844c0-42.339844-34.472656-76.703125-76.53125-75.875-40.773438.820312-73.46875 34.023438-73.46875 74.882812v74.957032h-10.414062c-8.574219-39.023438-19.585938-96.589844-19.585938-134.828125 0-46.855469 33.148438-89.542969 78.820312-101.5 8.015626-2.097657 12.808594-10.296875 10.710938-18.308594-2.101562-8.015625-10.296875-12.804687-18.3125-10.710937-8.230469 2.15625-16.226562 5.136718-23.894531 8.824218 7.113281-19.386718 12.675781-40.25 12.675781-58.09375 0-8.285156-6.714844-15-15-15s-15 6.714844-15 15c0 17.039063-7.234375 39.695313-15.753906 60.265625-3.308594-12.828125-8.546875-26.308593-16.769532-38.625-4.597656-6.894531-13.914062-8.75-20.800781-4.152343-6.894531 4.597656-8.75 13.910156-4.152343 20.800781 17.683593 26.496093 17.460937 62.253906 17.011718 72.191406-12.675781 20.941406-19.535156 45.03125-19.535156 69.308594 0 38.933593 10.148438 94.378906 18.742188 134.351562-45.824219-30.738281-52-62.839843-47.054688-139.613281 2.765625-42.832031-4.988281-87.40625-22.429688-128.917969-38.746093-92.089843 53.589844-171.890625 136.074219-123.148437zm124.710938 437.101562h-150.085938c-.148437-2.199218-.195312-1.441406-3.457031-14.953125h18.5c8.285156 0 15-6.714843 15-14.996093v-89.953126c0-24.265624 19.769531-44.40625 44.070312-44.894531 25.339844-.457031 45.929688 20.425781 45.929688 45.886719v88.960938c0 8.28125 6.714844 14.996093 15 14.996093h18.5c-3.265625 13.53125-3.304688 12.757813-3.457031 14.953125zm-300.042969-224.742187c0-15.371094 11.660156-28.066407 26.609375-29.753907 4.800781 22.507813 6.578125 45.300782 5.144531 67.53125-5.128906 79.554688-.722656 127.757813 65.195313 169.671876 4.535156 2.882812 7.503906 2.339843 18.679687 2.339843 1.519532 6.414063 2.777344 11.519531 3.640625 14.953125h-119.269531zm452 224.742187h-121.269531c.863281-3.433594 2.121093-8.539062 3.640625-14.953125 15.957031 0 19.089844.734375 23.976562-2.535156 62.265625-41.710937 64.335938-89.046875 60.027344-167.425781-1.3125-23.421875.617188-46.941406 5.582031-69.6875 15.632813 1.011718 28.042969 14.023437 28.042969 29.878906zm0 0"/></svg>