<svg height="512pt" viewBox="0 0 512.00049 512" width="512pt" xmlns="http://www.w3.org/2000/svg"><path d="m260.421875 147.972656c-41.089844 41.09375-63.722656 95.691406-63.722656 153.738282 0 58.046874 22.632812 112.648437 63.722656 153.738281 7.144531 7.148437 16.53125 10.71875 25.921875 10.71875 9.386719 0 18.769531-3.570313 25.917969-10.71875 14.289062-14.289063 14.289062-37.542969 0-51.835938-27.171875-27.171875-42.136719-63.359375-42.136719-101.898437-.003906-38.542969 14.964844-74.730469 42.136719-101.902344 14.289062-14.292969 14.289062-37.546875 0-51.835938-14.292969-14.292968-37.546875-14.292968-51.839844-.003906zm37.699219 37.699219c-17.402344 17.40625-30.410156 38.054687-38.464844 60.597656-.496094-1.164062-1.207031-2.234375-2.109375-3.136719-1.859375-1.859374-4.4375-2.929687-7.066406-2.929687-2.628907 0-5.210938 1.070313-7.070313 2.929687-1.859375 1.859376-2.929687 4.441407-2.929687 7.070313 0 2.636719 1.070312 5.207031 2.929687 7.066406 1.859375 1.871094 4.441406 2.929688 7.070313 2.929688 1.878906 0 3.730469-.550781 5.3125-1.542969-3.730469 13.859375-5.664063 28.304688-5.664063 43.054688 0 16.894531 2.535156 33.390624 7.410156 49.0625-.027343-.03125-.050781-.0625-.078124-.089844-1.863282-1.859375-4.441407-2.929688-7.070313-2.929688s-5.210937 1.070313-7.070313 2.929688c-1.855468 1.859375-2.929687 4.441406-2.929687 7.070312 0 2.636719 1.070313 5.207032 2.929687 7.066406 1.859376 1.871094 4.441407 2.929688 7.070313 2.929688 2.640625 0 5.207031-1.058594 7.070313-2.929688 1.59375-1.582031 2.589843-3.683593 2.851562-5.90625 8.09375 21.859376 20.859375 41.890626 37.808594 58.839844 6.496094 6.496094 6.496094 17.0625 0 23.558594s-17.0625 6.496094-23.558594 0c-36.078125-36.078125-56.484375-83.621094-57.796875-134.371094.5 1.167969 1.210937 2.242188 2.121094 3.140625 1.855469 1.871094 4.429687 2.929688 7.066406 2.929688 2.628906 0 5.199219-1.058594 7.070313-2.929688 1.859374-1.859375 2.929687-4.429687 2.929687-7.070312 0-2.628907-1.070313-5.199219-2.929687-7.066407-1.871094-1.859374-4.441407-2.921874-7.070313-2.921874-2.640625 0-5.210937 1.0625-7.066406 2.921874-.933594.925782-1.664063 2.03125-2.160157 3.230469.648438-51.757812 21.121094-100.347656 57.835938-137.0625 3.246094-3.246093 7.515625-4.871093 11.78125-4.871093 4.261719 0 8.53125 1.625 11.777344 4.871093 6.496094 6.496094 6.496094 17.0625 0 23.558594zm0 0"/><path d="m246.859375 35.199219c-94.171875 21.210937-138.480469 111.207031-140.320313 115.027343-8.496093 17.636719-1.058593 38.898438 16.578126 47.394532 4.957031 2.386718 10.195312 3.515625 15.355468 3.515625 13.21875 0 25.929688-7.402344 32.027344-20.0625.308594-.628907 31.46875-62.96875 91.964844-76.597657 6.566406-1.480468 12.546875-4.769531 17.289062-9.511718 0 0 0 0 0-.003906 8.667969-8.667969 12.238282-20.976563 9.546875-32.925782-4.300781-19.097656-23.339843-31.136718-42.441406-26.835937zm18.753906 45.625c-2.0625 2.0625-4.671875 3.496093-7.542969 4.144531-24.082031 5.425781-43.996093 17.273438-59.792968 30.550781.144531-.671875.222656-1.359375.222656-2.050781 0-2.628906-1.070312-5.210938-2.929688-7.070312-1.859374-1.859376-4.441406-2.929688-7.070312-2.929688s-5.207031 1.070312-7.066406 2.929688c-1.859375 1.859374-2.929688 4.429687-2.929688 7.070312 0 2.628906 1.070313 5.207031 2.929688 7.066406s4.4375 2.929688 7.066406 2.929688c.335938 0 .671875-.015625 1.003906-.050782-24.546875 23.59375-36.800781 48.53125-37.003906 48.949219-3.710938 7.707031-13 10.957031-20.703125 7.246094s-10.953125-13-7.242187-20.707031c.417968-.863282 3.230468-6.597656 8.542968-15.011719.261719 2.222656 1.265625 4.332031 2.851563 5.921875 1.863281 1.867188 4.441406 2.929688 7.070312 2.929688 2.628907 0 5.210938-1.0625 7.066407-2.929688 1.871093-1.859375 2.933593-4.441406 2.933593-7.070312 0-2.628907-1.0625-5.207032-2.933593-7.066407-1.855469-1.859375-4.4375-2.929687-7.066407-2.929687-.914062 0-1.820312.136718-2.691406.382812 16.050781-22.507812 44.550781-54.050781 86.53125-70.832031-.410156 1.101563-.636719 2.269531-.636719 3.449219 0 2.632812 1.070313 5.210937 2.929688 7.070312s4.441406 2.929688 7.070312 2.929688 5.207032-1.070313 7.066406-2.929688c1.859376-1.859375 2.929688-4.4375 2.929688-7.070312 0-2.628906-1.066406-5.207032-2.929688-7.066406-.546874-.550782-1.167968-1.023438-1.824218-1.425782 3.195312-.9375 6.453125-1.796875 9.789062-2.546875 1.144532-.257812 2.285156-.382812 3.410156-.382812 7.089844 0 13.507813 4.90625 15.128907 12.105469 1.175781 5.222656-.386719 10.601562-4.179688 14.394531zm0 0"/><path d="m50.75 237.078125c-13.839844 13.839844-13.835938 36.359375 0 50.195313 16.457031 16.457031 38.371094 25.519531 61.699219 25.519531 23.332031 0 45.242187-9.0625 61.699219-25.519531 13.839843-13.839844 13.839843-36.355469 0-50.195313-13.839844-13.839844-36.355469-13.839844-50.195313 0-3.0625 3.066406-7.148437 4.753906-11.503906 4.753906-4.351563 0-8.4375-1.6875-11.503907-4.753906-13.835937-13.839844-36.355468-13.839844-50.195312 0zm87.34375 14.140625c6.042969-6.042969 15.875-6.042969 21.917969 0 6.042969 6.039062 6.042969 15.871094 0 21.914062-12.683594 12.679688-29.570313 19.664063-47.558594 19.664063-17.992187 0-34.882813-6.984375-47.5625-19.664063-6.042969-6.042968-6.042969-15.871093 0-21.914062 3.023437-3.023438 6.992187-4.53125 10.960937-4.53125s7.933594 1.507812 10.957032 4.527344c6.839844 6.84375 15.949218 10.613281 25.644531 10.613281s18.800781-3.769531 25.640625-10.609375zm0 0"/><path d="m82.132812 92.035156c2.5625 0 5.128907-.980468 7.078126-2.9375l.523437-.523437c3.902344-3.902344 3.902344-10.234375 0-14.140625-3.90625-3.902344-10.234375-3.902344-14.140625 0l-.542969.542968c-3.898437 3.910157-3.886719 10.238282.023438 14.136719 1.949219 1.949219 4.503906 2.921875 7.058593 2.921875zm0 0"/><path d="m437.035156 74.964844c-43.347656-43.34375-100.839844-69.71875-161.894531-74.257813-60.402344-4.492187-120.527344 12.535157-169.277344 47.941407-4.46875 3.246093-5.460937 9.5-2.214843 13.964843 3.242187 4.472657 9.496093 5.460938 13.964843 2.214844 94.320313-68.503906 222.710938-58.292969 305.28125 24.277344 44.566407 44.566406 69.109375 103.820312 69.109375 166.847656 0 63.023437-24.542968 122.277344-69.109375 166.84375-92 92-241.691406 92-333.691406 0-80.542969-80.542969-92.15625-206.949219-27.609375-300.570313 3.132812-4.546874 1.988281-10.773437-2.558594-13.90625-4.546875-3.136718-10.773437-1.988281-13.90625 2.558594-70.023437 101.5625-57.433594 238.691406 29.933594 326.058594 48.34375 48.34375 112.617188 74.964844 180.984375 74.964844s132.644531-26.621094 180.988281-74.964844 74.964844-112.617188 74.964844-180.984375c0-68.371094-26.625-132.644531-74.964844-180.988281zm0 0"/><path d="m147.917969 276.117188c2.628906 0 5.210937-1.058594 7.070312-2.929688 1.859375-1.859375 2.929688-4.429688 2.929688-7.070312 0-2.628907-1.070313-5.199219-2.929688-7.066407-1.859375-1.859375-4.441406-2.929687-7.070312-2.929687-2.628907 0-5.207031 1.070312-7.066407 2.929687-1.859374 1.859375-2.929687 4.4375-2.929687 7.066407 0 2.640624 1.070313 5.210937 2.929687 7.070312 1.859376 1.871094 4.4375 2.929688 7.066407 2.929688zm0 0"/><path d="m73.171875 260.191406c-1.859375 1.859375-2.917969 4.4375-2.917969 7.066406 0 2.628907 1.058594 5.210938 2.917969 7.078126 1.871094 1.859374 4.441406 2.921874 7.078125 2.921874 2.632812 0 5.199219-1.0625 7.070312-2.921874 1.859376-1.867188 2.929688-4.449219 2.929688-7.078126 0-2.628906-1.070312-5.207031-2.929688-7.066406-1.859374-1.859375-4.4375-2.929687-7.070312-2.929687-2.636719 0-5.207031 1.070312-7.078125 2.929687zm0 0"/><path d="m265.605469 420.140625c2.640625 0 5.210937-1.070313 7.078125-2.929687 1.863281-1.859376 2.929687-4.441407 2.929687-7.070313s-1.066406-5.207031-2.929687-7.066406c-1.867188-1.859375-4.4375-2.929688-7.078125-2.929688-2.628907 0-5.199219 1.070313-7.066407 2.929688-1.859374 1.859375-2.921874 4.4375-2.921874 7.066406s1.0625 5.210937 2.921874 7.070313c1.867188 1.859374 4.4375 2.929687 7.066407 2.929687zm0 0"/><path d="m166.835938 343.855469c0-2.640625-1.070313-5.210938-2.929688-7.070313s-4.441406-2.929687-7.070312-2.929687c-2.628907 0-5.207032 1.070312-7.066407 2.929687s-2.929687 4.429688-2.929687 7.070313c0 2.628906 1.070312 5.207031 2.929687 7.066406s4.4375 2.929687 7.066407 2.929687c2.628906 0 5.210937-1.070312 7.070312-2.929687s2.929688-4.4375 2.929688-7.066406zm0 0"/><path d="m72.152344 327.75c-1.859375 1.859375-2.917969 4.4375-2.917969 7.066406s1.058594 5.210938 2.917969 7.070313c1.871094 1.859375 4.441406 2.929687 7.070312 2.929687 2.640625 0 5.207032-1.070312 7.078125-2.929687 1.859375-1.859375 2.929688-4.441407 2.929688-7.070313s-1.070313-5.207031-2.929688-7.066406c-1.871093-1.859375-4.4375-2.929688-7.078125-2.929688-2.628906-.003906-5.199218 1.066407-7.070312 2.929688zm0 0"/><path d="m166.234375 431.816406c2.628906 0 5.199219-1.066406 7.070313-2.929687 1.859374-1.859375 2.929687-4.4375 2.929687-7.066407 0-2.628906-1.070313-5.210937-2.929687-7.070312-1.871094-1.859375-4.441407-2.929688-7.070313-2.929688s-5.207031 1.070313-7.078125 2.929688c-1.859375 1.859375-2.917969 4.441406-2.917969 7.070312 0 2.628907 1.058594 5.207032 2.917969 7.066407 1.871094 1.863281 4.441406 2.929687 7.078125 2.929687zm0 0"/><path d="m359.429688 77.855469c-2.628907 0-5.210938 1.070312-7.066407 2.929687-1.863281 1.859375-2.933593 4.4375-2.933593 7.066406 0 2.628907 1.070312 5.210938 2.933593 7.070313 1.855469 1.859375 4.4375 2.929687 7.066407 2.929687 2.628906 0 5.207031-1.070312 7.066406-2.929687 1.863281-1.859375 2.929687-4.441406 2.929687-7.070313 0-2.628906-1.066406-5.207031-2.929687-7.066406-1.859375-1.859375-4.4375-2.929687-7.066406-2.929687zm0 0"/><path d="m358.160156 160.820312c0 2.628907 1.058594 5.207032 2.929688 7.066407 1.859375 1.859375 4.429687 2.921875 7.066406 2.921875 2.628906 0 5.210938-1.0625 7.070312-2.921875 1.859376-1.867188 2.929688-4.4375 2.929688-7.066407 0-2.632812-1.070312-5.210937-2.929688-7.082031-1.859374-1.859375-4.441406-2.925781-7.070312-2.925781-2.636719 0-5.207031 1.066406-7.066406 2.925781-1.871094 1.871094-2.929688 4.441407-2.929688 7.082031zm0 0"/><path d="m348.960938 426.027344c-1.859376 1.859375-2.929688 4.441406-2.929688 7.070312s1.070312 5.210938 2.929688 7.070313c1.859374 1.867187 4.4375 2.929687 7.070312 2.929687 2.636719 0 5.207031-1.0625 7.066406-2.929687 1.871094-1.859375 2.929688-4.441407 2.929688-7.070313s-1.058594-5.199218-2.929688-7.070312c-1.859375-1.859375-4.429687-2.929688-7.066406-2.929688-2.628906 0-5.210938 1.070313-7.070312 2.929688zm0 0"/><path d="m420.777344 345.734375c-1.859375 1.871094-2.929688 4.4375-2.929688 7.066406 0 2.640625 1.070313 5.210938 2.929688 7.070313 1.859375 1.871094 4.429687 2.929687 7.070312 2.929687 2.628906 0 5.207032-1.058593 7.066406-2.929687 1.859376-1.859375 2.929688-4.429688 2.929688-7.070313 0-2.628906-1.070312-5.195312-2.929688-7.066406-1.859374-1.859375-4.4375-2.929687-7.066406-2.929687-2.640625 0-5.210937 1.070312-7.070312 2.929687zm0 0"/><path d="m337.484375 295.074219c0 2.628906 1.070313 5.207031 2.929687 7.066406 1.859376 1.859375 4.4375 2.929687 7.066407 2.929687 2.632812 0 5.210937-1.070312 7.070312-2.929687s2.929688-4.4375 2.929688-7.066406c0-2.640625-1.070313-5.210938-2.929688-7.070313-1.859375-1.867187-4.4375-2.929687-7.070312-2.929687-2.628907 0-5.207031 1.0625-7.066407 2.929687-1.859374 1.859375-2.929687 4.429688-2.929687 7.070313zm0 0"/><path d="m399.230469 291.023438c2.640625 0 5.210937-1.066407 7.070312-2.925782 1.867188-1.863281 2.929688-4.441406 2.929688-7.070312s-1.0625-5.210938-2.929688-7.070313c-1.859375-1.859375-4.441406-2.929687-7.070312-2.929687-2.628907 0-5.207031 1.070312-7.066407 2.929687-1.859374 1.859375-2.929687 4.441407-2.929687 7.070313s1.070313 5.207031 2.929687 7.070312c1.859376 1.855469 4.4375 2.925782 7.066407 2.925782zm0 0"/><path d="m418.65625 239.554688c2.632812 0 5.199219-1.070313 7.070312-2.929688 1.859376-1.859375 2.929688-4.441406 2.929688-7.070312 0-2.628907-1.070312-5.207032-2.929688-7.066407-1.871093-1.859375-4.4375-2.929687-7.070312-2.929687-2.636719 0-5.207031 1.070312-7.078125 2.929687-1.859375 1.859375-2.917969 4.4375-2.917969 7.066407 0 2.628906 1.058594 5.210937 2.917969 7.070312s4.441406 2.929688 7.078125 2.929688zm0 0"/><path d="m266.445312 177.585938c-2.636718 0-5.21875 1.070312-7.078124 2.929687-1.859376 1.859375-2.917969 4.4375-2.917969 7.066406 0 2.632813 1.058593 5.210938 2.917969 7.070313 1.859374 1.859375 4.441406 2.929687 7.078124 2.929687 2.632813 0 5.199219-1.070312 7.070313-2.929687 1.859375-1.859375 2.929687-4.4375 2.929687-7.070313 0-2.628906-1.070312-5.207031-2.929687-7.066406-1.871094-1.859375-4.4375-2.929687-7.070313-2.929687zm0 0"/><path d="m300.410156 299.652344c0 25.066406 20.394532 45.457031 45.457032 45.457031 64.761718 0 117.453124-52.6875 117.453124-117.449219 0-25.0625-20.394531-45.457031-45.460937-45.457031-25.0625 0-45.457031 20.394531-45.457031 45.457031 0 14.632813-11.902344 26.535156-26.535156 26.535156-25.0625 0-45.457032 20.394532-45.457032 45.457032zm91.988282-71.992188c0-14.039062 11.421874-25.460937 25.460937-25.460937 14.042969 0 25.464844 11.421875 25.464844 25.460937 0 53.738282-43.71875 97.453125-97.457031 97.453125-14.039063 0-25.460938-11.421875-25.460938-25.460937 0-14.039063 11.421875-25.460938 25.460938-25.460938 25.660156 0 46.53125-20.875 46.53125-46.53125zm0 0"/></svg>