<svg id="Capa_1" enable-background="new 0 0 512 512" height="512" viewBox="0 0 512 512" width="512" xmlns="http://www.w3.org/2000/svg"><path id="XMLID_208_" d="m157.979 495.227c-1.289 0-2.587-.249-3.825-.762-3.737-1.548-6.173-5.194-6.173-9.239v-65.312c-40.662-11.893-77.261-36.532-103.714-69.979-28.96-36.615-44.267-80.697-44.267-127.481 0-113.413 92.269-205.681 205.682-205.681h100.637c113.412 0 205.681 92.268 205.681 205.681 0 35.029-8.965 69.621-25.925 100.036-2.69 4.823-8.78 6.554-13.604 3.864-4.823-2.69-6.553-8.781-3.863-13.604 15.303-27.444 23.392-58.668 23.392-90.296 0-102.385-83.296-185.682-185.682-185.682h-100.636c-102.386.001-185.682 83.297-185.682 185.682 0 85.339 57.739 159.405 140.412 180.115 4.449 1.115 7.57 5.113 7.57 9.7v48.815l50.021-50.02c1.875-1.875 4.418-2.929 7.071-2.929h81.246c37.801 0 74.172-11.287 105.18-32.64 4.549-3.132 10.776-1.984 13.908 2.564 3.132 4.549 1.984 10.775-2.564 13.908-34.36 23.662-74.653 36.168-116.524 36.168h-77.104l-64.163 64.162c-1.913 1.914-4.471 2.93-7.074 2.93z"/><path id="XMLID_207_" d="m451.06 364.139c-2.63 0-5.21-1.07-7.07-2.93s-2.93-4.44-2.93-7.07 1.07-5.21 2.93-7.07 4.44-2.93 7.07-2.93 5.21 1.07 7.07 2.93 2.93 4.44 2.93 7.07-1.07 5.21-2.93 7.07c-1.86 1.861-4.44 2.93-7.07 2.93z"/><path id="XMLID_223_" d="m259.103 212.454h-2.621v-37.845c0-5.523-4.477-10-10-10s-10 4.477-10 10v37.845h-31.298v-37.845c0-5.523-4.477-10-10-10s-10 4.477-10 10v47.845c0 5.523 4.477 10 10 10h41.298v37.951c0 5.523 4.477 10 10 10s10-4.477 10-10v-37.951h2.621c5.523 0 10-4.477 10-10s-4.478-10-10-10z"/><path id="XMLID_204_" d="m147.435 280.405h-47.898c-4.044 0-7.691-2.437-9.239-6.173s-.692-8.038 2.167-10.898l30.963-30.963c9.032-9.032 14.006-21.04 14.006-33.812 0-7.691-6.258-13.949-13.949-13.949s-13.949 6.257-13.949 13.949c0 5.523-4.477 10-10 10s-10-4.477-10-10c0-18.719 15.229-33.949 33.949-33.949s33.949 15.229 33.949 33.949c0 18.114-7.054 35.145-19.863 47.955l-13.893 13.893h23.756c5.523 0 10 4.477 10 10s-4.476 9.998-9.999 9.998z"/><path id="XMLID_203_" d="m364.557 280.407c-1.503 0-3.029-.34-4.464-1.058-4.94-2.47-6.942-8.477-4.472-13.417l40.662-81.324h-31.718c-5.523 0-10-4.477-10-10s4.477-10 10-10h47.898c3.466 0 6.685 1.794 8.506 4.743 1.822 2.948 1.988 6.629.438 9.729l-47.898 95.796c-1.752 3.505-5.284 5.531-8.952 5.531z"/><path id="XMLID_202_" d="m292.34 296.457c-.857 0-1.728-.111-2.595-.343-5.334-1.429-8.5-6.913-7.071-12.248l34.297-128c1.429-5.334 6.913-8.5 12.248-7.071 5.334 1.429 8.5 6.913 7.071 12.248l-34.297 128c-1.197 4.467-5.238 7.414-9.653 7.414z"/></svg>