<?xml version="1.0" encoding="iso-8859-1"?>
<!-- Generator: Adobe Illustrator 19.0.0, SVG Export Plug-In . SVG Version: 6.00 Build 0)  -->
<svg version="1.1" id="Capa_1" xmlns="http://www.w3.org/2000/svg" xmlns:xlink="http://www.w3.org/1999/xlink" x="0px" y="0px"
	 viewBox="0 0 384 384" style="enable-background:new 0 0 384 384;" xml:space="preserve">
<g>
	<g>
		<path d="M64,0v80H0v144h64v160h224l96-96V0H64z M16,208V96h240v112H16z M288,361.376V288h73.376L288,361.376z M368,272h-96v96H80
			V224h192V80H80V16h288V272z"/>
	</g>
</g>
<g>
	<g>
		<path d="M86,137.44c-0.576-4.112-1.68-7.6-3.312-10.512c-1.648-2.928-3.92-5.152-6.88-6.72c-2.944-1.568-6.816-2.368-11.616-2.368
			H41.536v68.544H63.36c4.608,0,8.416-0.704,11.424-2.112c2.992-1.408,5.408-3.536,7.2-6.432c1.776-2.88,3.04-6.56,3.776-10.992
			c0.736-4.448,1.104-9.68,1.104-15.696C86.864,146.112,86.56,141.536,86,137.44z M72.592,163.264
			c-0.288,3.152-0.864,5.68-1.728,7.6c-0.864,1.92-2.032,3.296-3.504,4.128c-1.488,0.832-3.424,1.248-5.856,1.248H55.36v-48.208
			h5.824c2.64,0,4.72,0.512,6.304,1.504c1.568,0.976,2.752,2.448,3.552,4.4c0.8,1.952,1.328,4.4,1.6,7.344
			c0.24,2.96,0.368,6.384,0.368,10.288C73.008,156.24,72.88,160.144,72.592,163.264z"/>
	</g>
</g>
<g>
	<g>
		<path d="M150.032,137.776c-0.48-4.368-1.536-8.144-3.168-11.28c-1.632-3.12-3.984-5.584-7.056-7.344
			c-3.056-1.744-7.184-2.64-12.368-2.64s-9.312,0.896-12.384,2.64c-3.056,1.76-5.408,4.224-7.04,7.344
			c-1.632,3.136-2.688,6.912-3.168,11.28c-0.496,4.4-0.72,9.184-0.72,14.368c0,5.232,0.24,10.048,0.72,14.384
			c0.48,4.352,1.52,8.096,3.168,11.232c1.632,3.152,3.984,5.536,7.04,7.184c3.072,1.648,7.2,2.496,12.384,2.496
			c5.184,0,9.312-0.832,12.368-2.496c3.072-1.664,5.408-4.064,7.056-7.2c1.616-3.136,2.688-6.88,3.168-11.232
			c0.464-4.336,0.72-9.152,0.72-14.384C150.752,146.944,150.496,142.16,150.032,137.776z M136.656,163.888
			c-0.24,3.232-0.672,5.856-1.344,7.872c-0.672,2.016-1.648,3.472-2.896,4.416c-1.264,0.928-2.896,1.392-4.944,1.392
			c-2.048,0-3.712-0.464-4.96-1.392c-1.248-0.928-2.208-2.4-2.88-4.416s-1.12-4.64-1.344-7.872s-0.336-7.136-0.336-11.744
			c0-4.608,0.112-8.512,0.336-11.712c0.224-3.2,0.672-5.824,1.344-7.872c0.672-2.048,1.632-3.52,2.88-4.448
			c1.264-0.944,2.912-1.408,4.96-1.408c2.048,0,3.696,0.464,4.944,1.408c1.248,0.912,2.224,2.4,2.896,4.448s1.104,4.672,1.344,7.872
			c0.224,3.2,0.336,7.104,0.336,11.712C136.992,156.752,136.88,160.656,136.656,163.888z"/>
	</g>
</g>
<g>
	<g>
		<path d="M198.4,160.224c0,3.712-0.224,6.704-0.672,8.976c-0.432,2.272-1.04,4.032-1.824,5.28c-0.768,1.248-1.68,2.08-2.736,2.496
			c-1.056,0.416-2.192,0.624-3.408,0.624c-1.472,0-2.768-0.32-3.888-0.928c-1.12-0.592-2.048-1.776-2.784-3.552
			s-1.296-4.24-1.632-7.44c-0.352-3.2-0.528-7.392-0.528-12.576c0-4.864,0.112-8.976,0.384-12.336
			c0.256-3.376,0.704-6.096,1.344-8.176c0.64-2.08,1.52-3.568,2.64-4.496c1.12-0.944,2.544-1.408,4.272-1.408
			c3.136,0,5.296,1.136,6.48,3.424c1.168,2.256,1.76,5.888,1.76,10.928h13.824c0-2.496-0.176-5.168-0.528-8.016
			c-0.336-2.848-1.248-5.504-2.64-7.968c-1.392-2.464-3.52-4.496-6.368-6.096c-2.848-1.6-6.72-2.4-11.664-2.4
			c-5.168,0-9.312,0.896-12.368,2.64c-3.072,1.76-5.408,4.224-7.056,7.344c-1.616,3.136-2.688,6.912-3.168,11.28
			c-0.464,4.384-0.72,9.168-0.72,14.352c0,5.232,0.256,10.048,0.72,14.384c0.48,4.352,1.536,8.096,3.168,11.232
			c1.632,3.136,3.984,5.536,7.056,7.2c3.056,1.648,7.2,2.496,12.368,2.496c4.544,0,8.24-0.72,11.088-2.128
			c2.848-1.408,5.04-3.36,6.624-5.84c1.552-2.496,2.64-5.408,3.216-8.736c0.576-3.328,0.864-6.864,0.864-10.56H198.4z"/>
	</g>
</g>
<g>
</g>
<g>
</g>
<g>
</g>
<g>
</g>
<g>
</g>
<g>
</g>
<g>
</g>
<g>
</g>
<g>
</g>
<g>
</g>
<g>
</g>
<g>
</g>
<g>
</g>
<g>
</g>
<g>
</g>
</svg>
