<?xml version="1.0" encoding="iso-8859-1"?>
<!-- Generator: Adobe Illustrator 19.0.0, SVG Export Plug-In . SVG Version: 6.00 Build 0)  -->
<svg version="1.1" id="Capa_1" xmlns="http://www.w3.org/2000/svg" xmlns:xlink="http://www.w3.org/1999/xlink" x="0px" y="0px"
	 viewBox="0 0 508 508" style="enable-background:new 0 0 508 508;" xml:space="preserve">
<g>
	<g>
		<path d="M413.1,159.8h-68.9v-49.2h-24.6V98.3c0-15.8-12.9-28.7-28.7-28.7s-28.7,12.9-28.7,28.7v12.3H0v278.6h49.8
			c4,27.7,27.9,49.2,56.7,49.2s52.7-21.4,56.7-49.2h198c4,27.7,27.9,49.2,56.7,49.2s52.7-21.4,56.7-49.2H508V254.7L413.1,159.8z
			 M278.6,98.3L278.6,98.3c0-6.8,5.5-12.3,12.3-12.3s12.3,5.5,12.3,12.3v12.3h-24.6V98.3z M106.5,422c-22.6,0-41-18.4-41-41
			c0-22.6,18.4-41,41-41c22.6,0,41,18.4,41,41C147.5,403.6,129.1,422,106.5,422z M327.8,372.8H163.2c-4-27.7-27.9-49.2-56.7-49.2
			S53.8,345,49.8,372.8H16.4V127h311.4V372.8z M344.1,176.2h62.2l81.9,81.9H344.1V176.2z M417.9,422c-22.6,0-41-18.4-41-41
			c0-22.6,18.4-41,41-41c22.6,0,41,18.4,41,41C458.9,403.6,440.5,422,417.9,422z M491.7,372.8h-17.1c-4-27.7-27.9-49.2-56.7-49.2
			s-52.7,21.4-56.7,49.2h-17v-98.3h147.5V372.8z"/>
	</g>
</g>
<g>
	<g>
		<path d="M269.8,184.9v-33.3h-56.3v33.3h-33.3v56.3h33.3v33.3h56.3v-33.3h33.3v-56.3H269.8z M286.8,224.9h-33.3v33.3h-23.6v-33.3
			h-33.3v-0.1v-23.6h33.3V168h23.6v33.3h33.3V224.9z"/>
	</g>
</g>
<g>
	<g>
		<path d="M114.7,151.6H65.5c-13.6,0-24.6,11-24.6,24.6v81.9c0.1,13.6,11.1,24.6,24.6,24.6h49.2c13.6,0,24.6-11,24.6-24.6v-81.9
			C139.3,162.6,128.3,151.6,114.7,151.6z M123,258.1c0,4.5-3.7,8.2-8.2,8.2H65.5c-4.5,0-8.2-3.7-8.2-8.2v-81.9h0.1
			c0-4.5,3.7-8.2,8.2-8.2h49.2c4.5,0,8.2,3.7,8.2,8.2V258.1z"/>
	</g>
</g>
<g>
</g>
<g>
</g>
<g>
</g>
<g>
</g>
<g>
</g>
<g>
</g>
<g>
</g>
<g>
</g>
<g>
</g>
<g>
</g>
<g>
</g>
<g>
</g>
<g>
</g>
<g>
</g>
<g>
</g>
</svg>
