<svg height="512" viewBox="0 0 64 64" width="512" xmlns="http://www.w3.org/2000/svg"><path d="m47.63 5.082a9.958 9.958 0 0 0 -7.696-3.082 11.532 11.532 0 0 0 -6.534 2.2 2.767 2.767 0 0 1 -2.792 0 11.532 11.532 0 0 0 -6.542-2.2 9.958 9.958 0 0 0 -7.7 3.082c-1.963 2.2-2.78 5.318-2.364 9.029.224 1.99 1.308 4.642 3.218 7.889h-1.22a1 1 0 0 0 -.895 1.447l4 8a1 1 0 0 0 .895.553h4.064l.134 2h-2.198a1 1 0 0 0 -.287 1.958l2.668.8.219 3.242h-2.6a1 1 0 0 0 -.287 1.958l3.077.923.21 3.119h-3a1 1 0 0 0 -.287 1.958l3.487 1.042.2 3h-3.4a1 1 0 0 0 -.287 1.958l3.893 1.168.4 5.94a1 1 0 0 0 .994.934h10a1 1 0 0 0 1-.934l.069-1.066h3.931a1 1 0 0 0 .287-1.958l-4.007-1.2.189-2.842h3.531a1 1 0 0 0 .287-1.958l-3.615-1.085.2-2.957h3.128a1 1 0 0 0 .287-1.958l-3.223-.967.2-3.075h2.736a1 1 0 0 0 .287-1.958l-2.831-.849.48-7.193h4.064a1 1 0 0 0 .9-.553l4-8a1 1 0 0 0 -.9-1.447h-1.224c1.91-3.247 2.994-5.9 3.218-7.889.416-3.711-.401-6.833-2.364-9.029zm-11.566 54.918h-8.128l-.284-4.26 8.526 2.56zm.25-3.75-8.8-2.641-.266-3.992 9.326 2.8zm.392-5.882-9.6-2.882-.271-3.986 10.127 3.038zm.393-5.883-10.406-3.121-.266-3.992 10.927 3.278zm.392-5.882-11.206-3.361-.216-3.242h11.862zm7.891-12.603h-6.382v2h5.382l-1 2h-22.764l-1-2h7.382v-2h-8.382l-1-2h28.764zm2.624-12.111c-.148 1.316-.889 3.786-3.565 8.111h-24.882c-2.676-4.325-3.417-6.795-3.565-8.111-.351-3.13.294-5.715 1.867-7.474a8.026 8.026 0 0 1 6.205-2.415 9.545 9.545 0 0 1 5.308 1.782 12.45 12.45 0 0 0 7.874 2.84 12.928 12.928 0 0 0 4.065-.672l-.626-1.9a10.437 10.437 0 0 1 -6.6.065 3.5 3.5 0 0 0 .513-.315 9.536 9.536 0 0 1 5.334-1.8 8.026 8.026 0 0 1 6.205 2.415c1.573 1.759 2.218 4.344 1.867 7.474z"/><path d="m19.182 7.945c-1.48 1.626-1.87 4.073-1.159 7.272l1.954-.434c-.561-2.522-.333-4.367.676-5.484 1.459-1.613 4.2-1.309 4.226-1.306l.245-1.985c-.154-.021-3.78-.442-5.942 1.937z"/><path d="m19.5 16.882h2v2.236h-2z" transform="matrix(.894 -.447 .447 .894 -5.886 11.068)"/><path d="m42 10h2v2h-2z"/><path d="m38 13h2v2h-2z"/></svg>