<svg id="Capa_1" enable-background="new 0 0 284.544 284.544" height="512" viewBox="0 0 284.544 284.544" width="512" xmlns="http://www.w3.org/2000/svg"><path d="m183.245 284.544c-.854 0-1.717-.104-2.58-.313-3.69-.911-6.62-3.746-7.64-7.393-9.579-34.126-32.328-91.887-56.837-91.887s-47.257 57.761-56.832 91.887c-1.024 3.647-3.95 6.478-7.64 7.393-3.708.906-7.488-.185-10.101-2.945-22.166-23.384-20.359-70.822-20.269-72.832-.005-15.996 4.444-35.027 8.176-48.139 2.883-10.134.982-20.999-5.217-29.801-.939-1.333-1.84-2.665-2.703-3.998-12.58-19.378-19.228-42.563-19.228-67.043v-12.05c0-37.512 40.328-47.423 61.65-47.423 27.017 0 45.071 11.794 52.165 17.442 7.095-5.648 25.149-17.442 52.165-17.442 21.321 0 61.65 9.911 61.65 47.423v12.05c0 24.48-6.649 47.665-19.23 67.042-.863 1.333-1.764 2.665-2.703 3.998-6.203 8.802-8.105 19.666-5.217 29.801 3.732 13.112 8.18 32.143 8.18 48.348.085 1.802 1.892 49.239-20.269 72.624-2.004 2.119-4.698 3.258-7.52 3.258zm-67.056-109.078c35.477 0 59.459 75.63 65.966 98.811.142.512.555.688.782.745.379.095.692.005.939-.256 19.429-20.496 17.694-65.439 17.675-65.894-.005-15.313-4.259-33.424-7.825-45.958-3.671-12.904-1.271-26.704 6.587-37.858.868-1.233 1.702-2.466 2.499-3.694 11.585-17.845 17.708-39.243 17.708-61.887v-12.05c0-37.403-50.036-37.934-52.17-37.939-30.669 0-48.637 17.414-48.817 17.589-1.854 1.835-4.851 1.835-6.696-.009-.171-.166-18.139-17.58-48.813-17.58-2.125.005-52.165.536-52.165 37.939v12.05c0 22.645 6.122 44.042 17.698 61.878.806 1.238 1.636 2.471 2.504 3.704 7.858 11.159 10.258 24.954 6.587 37.858-3.566 12.534-7.82 30.64-7.82 45.749-.024.659-1.717 45.645 17.67 66.098.251.266.569.346.944.261.232-.057.64-.228.782-.745 6.506-23.182 30.488-98.812 65.965-98.812z"/><path d="m73.508 56.908c-2.618 0-4.742-2.125-4.742-4.742 0-2.618 2.125-4.742 4.742-4.742 13.71 0 32.826-19.311 39.039-26.751 1.679-2.011 4.666-2.281 6.677-.602s2.281 4.662.607 6.677c-2.57 3.086-25.727 30.16-46.323 30.16z"/><path d="m135.158 158.46-20.933-20.933 20.933-20.933 20.933 20.933zm-7.521-20.933 7.521 7.521 7.521-7.521-7.521-7.521z"/><path d="m135.158 128.042c-2.618 0-4.742-2.125-4.742-4.742v-9.485c0-2.618 2.125-4.742 4.742-4.742 2.618 0 4.742 2.125 4.742 4.742v9.485c.001 2.618-2.124 4.742-4.742 4.742z"/><path d="m158.87 142.269h-9.485c-2.618 0-4.742-2.125-4.742-4.742 0-2.618 2.125-4.742 4.742-4.742h9.485c2.618 0 4.742 2.125 4.742 4.742 0 2.618-2.124 4.742-4.742 4.742z"/><path d="m135.158 165.981c-2.618 0-4.742-2.125-4.742-4.742v-9.485c0-2.618 2.125-4.742 4.742-4.742 2.618 0 4.742 2.125 4.742 4.742v9.485c.001 2.617-2.124 4.742-4.742 4.742z"/><path d="m120.931 142.269h-9.485c-2.618 0-4.742-2.125-4.742-4.742 0-2.618 2.125-4.742 4.742-4.742h9.485c2.618 0 4.742 2.125 4.742 4.742.001 2.618-2.124 4.742-4.742 4.742z"/><path d="m253.716 205.883-20.933-20.933 20.933-20.933 20.933 20.933zm-7.521-20.933 7.521 7.521 7.521-7.521-7.521-7.521z"/><path d="m253.716 175.466c-2.618 0-4.742-2.125-4.742-4.742v-9.485c0-2.618 2.125-4.742 4.742-4.742s4.742 2.125 4.742 4.742v9.485c0 2.617-2.124 4.742-4.742 4.742z"/><path d="m277.428 189.693h-9.485c-2.618 0-4.742-2.125-4.742-4.742 0-2.618 2.125-4.742 4.742-4.742h9.485c2.618 0 4.742 2.125 4.742 4.742s-2.125 4.742-4.742 4.742z"/><path d="m253.716 213.404c-2.618 0-4.742-2.125-4.742-4.742v-9.485c0-2.618 2.125-4.742 4.742-4.742s4.742 2.125 4.742 4.742v9.485c0 2.618-2.124 4.742-4.742 4.742z"/><path d="m239.489 189.693h-9.485c-2.618 0-4.742-2.125-4.742-4.742 0-2.618 2.125-4.742 4.742-4.742h9.485c2.618 0 4.742 2.125 4.742 4.742s-2.124 4.742-4.742 4.742z"/><path d="m173.097 113.816c-2.618 0-4.742-2.125-4.742-4.742 0-20.918-12.766-37.939-28.454-37.939-2.618 0-4.742-2.125-4.742-4.742 0-2.618 2.125-4.742 4.742-4.742 15.688 0 28.454-17.02 28.454-37.938 0-2.618 2.125-4.742 4.742-4.742s4.742 2.125 4.742 4.742c0 20.918 12.766 37.938 28.454 37.938 2.618 0 4.742 2.125 4.742 4.742 0 2.618-2.125 4.742-4.742 4.742-15.688 0-28.454 17.02-28.454 37.939 0 2.617-2.124 4.742-4.742 4.742zm-16.665-47.424c7.042 4.278 12.88 11.206 16.664 19.738 3.789-8.531 9.622-15.46 16.664-19.738-7.042-4.278-12.88-11.206-16.664-19.738-3.788 8.532-9.621 15.461-16.664 19.738z"/></svg>