<svg height="512" viewBox="0 0 128 128" width="512" xmlns="http://www.w3.org/2000/svg"><g><path d="m121.5 79.94h-22.827c.217-1.616.426-3.239.635-4.858.3-2.306.592-4.6.909-6.85.531-3.781 2.166-7.544 4.058-11.9.136-.312.274-.635.411-.951h16.814a1.75 1.75 0 0 0 0-3.5h-15.331a64.619 64.619 0 0 0 4.552-16.251c1.6-11.98.288-20.2-4.025-25.129-4.42-5.051-11.018-5.747-17.491-5.747-5.888 0-10.7 2.841-15.794 5.849a58.943 58.943 0 0 1 -9.411 4.815 59.317 59.317 0 0 1 -9.4-4.818c-5.1-3.007-9.912-5.85-15.8-5.85-6.473 0-13.072.7-17.492 5.746-4.313 4.928-5.631 13.148-4.029 25.13a64.817 64.817 0 0 0 4.555 16.254h-15.334a1.75 1.75 0 0 0 0 3.5h16.816c.135.313.272.633.406.941 1.893 4.361 3.528 8.128 4.059 11.911.319 2.258.616 4.565.915 6.881.208 1.609.416 3.222.633 4.827h-22.829a1.751 1.751 0 0 0 -1.75 1.75v39.81a1.751 1.751 0 0 0 1.75 1.75h115a1.75 1.75 0 0 0 1.75-1.75v-39.81a1.75 1.75 0 0 0 -1.75-1.75zm-100.754-44.779c-1.44-10.77-.366-18.293 3.193-22.36 3.5-4 9.21-4.551 14.859-4.551 4.934 0 9.348 2.607 14.02 5.367 1.844 1.089 3.723 2.2 5.707 3.2a23.607 23.607 0 0 1 -3.248.224 1.75 1.75 0 0 0 0 3.5 27.917 27.917 0 0 0 9.13-1.563 1.685 1.685 0 0 0 .331-.115 59.747 59.747 0 0 0 10.452-5.248c4.671-2.758 9.083-5.362 14.015-5.362 5.648 0 11.357.551 14.857 4.552 3.559 4.067 4.632 11.59 3.19 22.359a63.769 63.769 0 0 1 -4.878 16.716h-18.187v-4.253a1.75 1.75 0 0 0 -1.75-1.75h-9a1.751 1.751 0 0 0 -1.75 1.75v4.253h-15.375v-4.253a1.75 1.75 0 0 0 -1.75-1.75h-9a1.751 1.751 0 0 0 -1.75 1.75v4.253h-18.183a63.975 63.975 0 0 1 -4.883-16.719zm54.441 18.5a.142.142 0 0 0 0-.058v-4.226h5.5v8.5h-5.5zm-22.375-.053v.024s0 .016 0 .024v4.223h-5.5v-8.5h5.5zm-25.683 1.772h16.683v4.247a1.75 1.75 0 0 0 1.75 1.75h9a1.749 1.749 0 0 0 1.75-1.75v-4.247h15.375v4.247a1.75 1.75 0 0 0 1.75 1.75h9a1.749 1.749 0 0 0 1.75-1.75v-4.247h16.686c-1.838 4.235-3.545 8.256-4.123 12.364-.317 2.26-.615 4.571-.914 6.891-2.19 17.018-4.454 34.615-15.356 34.615-4.307 0-4.981-3.322-5.491-10.9-.476-7.083-1.069-15.9-10.988-15.9-.042 0-.083 0-.124.005-9.794.073-10.386 8.841-10.862 15.892-.511 7.582-1.186 10.905-5.5 10.905-10.888 0-13.156-17.584-15.35-34.588-.3-2.33-.6-4.651-.92-6.92-.575-4.106-2.279-8.128-4.116-12.364zm92.621 64.37h-111.5v-36.31h21.569c2.268 15.5 5.834 29.313 17.7 29.313 8.035 0 8.565-7.857 8.99-14.17.527-7.829 1.171-12.628 7.491-12.628h.11c6.223.055 6.863 4.845 7.386 12.632.425 6.311.953 14.166 8.983 14.166 11.87 0 15.438-13.807 17.7-29.31h21.571z"/><path d="m102.807 36.334a1.694 1.694 0 0 0 .234.016 1.751 1.751 0 0 0 1.732-1.517c.784-5.841.809-10.664.076-14.335a1.75 1.75 0 1 0 -3.432.684c.656 3.293.619 7.729-.112 13.186a1.748 1.748 0 0 0 1.502 1.966z"/></g></svg>