<svg height="512pt" viewBox="0 0 512 512" width="512pt" xmlns="http://www.w3.org/2000/svg"><path d="m464 425h16v15h-16zm0 0"/><path d="m32 465h16v15h-16zm0 0"/><path d="m48 449h16v15h-16zm0 0"/><path d="m387.105469 393-28.105469-28.105469v-54.117187c19-3.515625 32-19.5625 32-38.777344v-96c0-21.78125-17.21875-39-39-39h-192c-21.78125 0-40 17.21875-40 39v96c0 19.214844 14 35.261719 32 38.777344v54.117187l-27.105469 28.105469h-124.894531v119h511v-119zm-11.105469-217v26.804688l-52.5625 19.800781-10.910156-22.066407 17.808594-26.367187-33.566407-22.171875h55.230469c13.507812 0 24 10.492188 24 24zm-241 96v-96c0-13.507812 11.492188-24 25-24h109.730469l39.867187 26.328125-14.253906 21.257813 20.71875 41.871093 59.9375-22.632812v53.175781c0 13.507812-10.492188 25-24 25h-40v15h32v88c0 28.613281-21 52.324219-49 56.003906v-80.003906c0-21.78125-17.71875-39.5-39.5-39.5s-39.5 17.71875-39.5 39.5v80.003906c-27-3.679687-49-27.394531-49-56.003906v-88h33v-15h-40c-13.507812 0-25-11.492188-25-25zm361 225h-481v-89h116.105469l20.894531-21.894531v13.894531c0 39.425781 32.574219 72 72 72h7v-96c0-13.507812 10.992188-24.5 24.5-24.5s24.5 10.992188 24.5 24.5v96h8c39.425781 0 71-32.574219 71-72v-13.894531l21.894531 21.894531h115.105469zm0 0"/><path d="m216 233h16v15h-16zm0 0"/><path d="m248 233h16v15h-16zm0 0"/><path d="m280 233h16v15h-16zm0 0"/><path d="m192 200h88v-15h-88c-4.6875 0-9-4.3125-9-9v-8h-15v8c0 12.957031 11.042969 24 24 24zm0 0"/><path d="m416 136h16v83.105469l29.144531 28.894531-34.574219 34.695312 10.671876 10.609376 45.082031-45.304688-35.324219-35.105469v-76.894531h16v-32h9v-88h-15v73h-34v-89h-15v104h8zm32-15h-17v-17h17zm0 0"/></svg>