<svg id="Layer_1" enable-background="new 0 0 512 512" height="512" viewBox="0 0 512 512" width="512" xmlns="http://www.w3.org/2000/svg"><g><circle cx="502" cy="381.03" r="10"/><path d="m502 236.001h-17.03c.633 0-5.963-17.526-6.89-19.264-8.663-16.25-22.86-28.891-38.088-38.881.315-6.261 1.008-31.389 1.008-37.461 0-56.733-11.638-95.135-35.58-117.401-21.769-20.246-49.714-22.842-71.628-22.842-2.76 0-5.497-.037-8.231-.074-20.305-.276-41.27-.56-69.561 13.248-28.292-13.807-49.256-13.523-69.561-13.249-2.734.037-5.471.074-8.231.074-21.914 0-49.86 2.596-71.629 22.842-23.941 22.267-35.579 60.669-35.579 117.402 0 6.072.694 31.212 1.009 37.478-20.375 13.35-40.398 33.325-44.979 58.128 0 0-17.013 0-17.03 0-5.448 0-10 4.556-10 10v255.999c0 5.12 4.661 10 10 10h492c2.63 0 5.21-1.07 7.07-2.93s2.93-4.44 2.93-7.07v-75.97c0-5.52-4.49-10-10-10s-10 4.48-10 10v65.97h-126v-58.88c9.852-3.783 18.998-13.266 27.29-28.332 8.762-15.919 16.811-38.212 23.923-66.259 11.367-44.824 17.676-90.997 21.335-137.047 12.871 10.317 24.875 23.662 26.918 40.03.832 6.663 1.919 14.488 10.503 14.488h16.031v80.03c0 5.51 4.49 10 10 10s10-4.49 10-10c0 0 0-89.815 0-90.029 0-5.265-4.541-10-10-10zm-356 255.999h-126v-235.999h16.03c5.376 0 9.888-4.428 9.99-9.8.25-11.41 5.38-22.71 15.26-33.59 3.495-3.855 7.594-7.613 12.219-11.246 3.693 48.408 11.227 97.486 21.288 137.164 7.112 28.047 15.161 50.34 23.923 66.259 8.292 15.065 17.438 24.548 27.29 28.332zm200 0h-180v-58.367c29.768-8.499 42.96-55.571 58.005-109.271 1.007-3.595 2.023-7.223 3.054-10.873 4.633-16.406 18.711-22.034 29.39-21.839 10.65.179 24.533 6.254 28.607 22.788 1.464 5.942 2.881 11.884 4.251 17.631 6.241 26.172 12.135 50.892 21.023 69.186 9.082 18.694 20.815 29.472 35.67 32.7zm51.826-158.387c-15.232 60.072-32.052 81.387-41.826 81.387-25.083 0-34.292-33.277-47.238-87.571-1.379-5.782-2.805-11.761-4.287-17.777-5.592-22.691-24.312-37.607-47.69-38-.298-.005-.595-.007-.892-.007-22.649 0-41.905 14.536-48.081 36.41-1.034 3.663-2.055 7.303-3.065 10.911-13.838 49.387-26.907 96.034-48.747 96.034-9.774 0-26.594-21.315-41.826-81.387-12.402-48.908-20.87-112.606-22.794-171.16 11.383-12.617 31.675-23.905 57.679-32.013 30.295-9.446 67.275-14.439 106.942-14.439s76.646 4.993 106.942 14.439c26.003 8.108 46.296 19.396 57.679 32.013-1.926 58.554-10.394 122.253-22.796 171.16zm-141.826-237.612c-70.541 0-130.742 14.986-164.976 40.103.548-47.85 10.357-80.964 29.176-98.465 16.569-15.41 38.622-17.487 58.008-17.487 2.851 0 5.678-.038 8.501-.076 19.548-.261 38.029-.503 63.738 12.854 7.446 3.869 14.457 8.809 21.073 13.941 4.253 3.298 10.665 2.566 14.03-1.772 3.385-4.364 2.592-10.645-1.772-14.03-2.355-1.827-4.588-3.475-6.681-4.965 18.097-6.429 32.815-6.232 48.193-6.027 2.824.038 5.651.076 8.501.076 19.387 0 41.439 2.078 58.008 17.487 18.819 17.502 28.627 50.615 29.176 98.465-34.233-25.118-94.434-40.104-164.975-40.104z"/><path d="m256 146.001c-86.171 0-119.045 32.104-120.402 33.471-2.031 2.045-3.081 4.867-2.88 7.743 2.572 36.852 9.657 86.751 17.283 121.854v55.931c0 5.523 4.477 10 10 10s10-4.477 10-10v-54.367c6.224-10.588 37.346-58.988 85.907-58.988 48.375 0 79.807 48.432 86.093 59.012v54.343c0 5.523 4.477 10 10 10s10-4.477 10-10v-55.932c7.626-35.103 14.71-85.002 17.283-121.854.201-2.875-.849-5.698-2.88-7.743-1.359-1.366-34.233-33.47-120.404-33.47zm90.871 136.438c-16.586-21.181-47.54-50.793-90.963-50.793-43.385 0-74.244 29.555-90.788 50.737-5.269-29.211-9.896-63.934-12.067-91.408 9.56-6.923 40.482-24.973 102.948-24.973 62.545 0 93.467 18.095 102.948 24.963-2.172 27.494-6.804 62.245-12.078 91.474z"/></g></svg>