<svg id="care" enable-background="new 0 0 300 300" height="512" viewBox="0 0 300 300" width="512" xmlns="http://www.w3.org/2000/svg"><g><path d="m40 118.651c-2.362 0-4.276 1.915-4.276 4.277s1.915 4.276 4.276 4.276 4.277-1.915 4.277-4.276-1.915-4.277-4.277-4.277z"/><path d="m58.995 54c2.209 0 4-1.791 4-4v-8c0-2.209-1.791-4-4-4s-4 1.791-4 4v8c0 2.209 1.791 4 4 4z"/><path d="m62.995 74v-8c0-2.209-1.791-4-4-4s-4 1.791-4 4v8c0 2.209 1.791 4 4 4s4-1.791 4-4z"/><path d="m50.995 54h-8c-2.209 0-4 1.791-4 4s1.791 4 4 4h8c2.209 0 4-1.791 4-4s-1.792-4-4-4z"/><path d="m66.995 62h8c2.209 0 4-1.791 4-4s-1.791-4-4-4h-8c-2.209 0-4 1.791-4 4s1.791 4 4 4z"/><path d="m236.995 214c-7.719 0-14 6.281-14 14s6.281 14 14 14 14-6.281 14-14-6.282-14-14-14zm0 20c-3.309 0-6-2.691-6-6s2.691-6 6-6 6 2.691 6 6-2.692 6-6 6z"/><path d="m260 162.651c-2.362 0-4.276 1.915-4.276 4.277s1.915 4.276 4.276 4.276 4.277-1.915 4.277-4.276-1.915-4.277-4.277-4.277z"/><path d="m230.368 121.383c-.588-5.718-2.143-11.261-4.563-16.513 10.16-10.985 17.905-21.261 17.905-28.553 0-12.514-10.18-22.695-22.693-22.695-5.104 0-10.035 1.764-14.021 4.938-3.986-3.174-8.918-4.938-14.021-4.938-11.776 0-21.479 9.019-22.583 20.511-8.899 1.162-17.373 4.549-24.659 9.921-.414.305-.984.303-1.398.002-11-8.113-24.584-11.654-38.246-9.984-24.369 2.982-43.879 22.879-46.391 47.312-1.51 14.688 2.871 28.93 12.334 40.102.021.024.039.05.059.074l-8.399 4.594c-1.283.701-2.08 2.047-2.08 3.51s.797 2.809 2.08 3.51l10.914 5.969 5.969 10.914c.701 1.283 2.047 2.08 3.51 2.08.283 0 .556-.054.827-.112.417 2.241.645 4.198.656 5.817.156 23.037 2.818 41.068 7.916 53.596 2.611 6.418 8.91 10.564 16.049 10.564 9.631 0 17.465-7.834 17.465-17.465v-44.537c0-9.926 8.074-18 18-18s18 8.074 18 18v44.49c0 9.654 7.855 17.51 17.51 17.51 7.16 0 13.477-4.158 16.09-10.594 5.09-12.529 7.748-30.551 7.904-53.568.018-2.727.625-6.396 1.805-10.906 2.43-9.268 7.152-18.729 14.436-28.92 7.548-10.569 10.968-23.576 9.625-36.629zm-37.395-59.762c4.236 0 8.146 1.805 11.01 5.08 1.52 1.738 4.504 1.738 6.023 0 2.863-3.275 6.773-5.08 11.01-5.08 8.102 0 14.693 6.592 14.693 14.695 0 7.727-20.326 28.086-28.715 36.42-8.389-8.334-28.715-28.693-28.715-36.42.001-8.103 6.592-14.695 14.694-14.695zm-111.912 112.652c-.367-.67-.92-1.223-1.59-1.59l-5.525-3.021 5.525-3.021c.67-.367 1.223-.92 1.59-1.59l3.021-5.525 3.021 5.525c.367.67.92 1.223 1.59 1.59l5.525 3.021-5.525 3.021c-.67.367-1.223.92-1.59 1.59l-3.021 5.525zm133.17-20.914c-7.859 10.998-12.984 21.316-15.666 31.545-1.35 5.156-2.045 9.49-2.066 12.881-.146 21.688-2.676 39.188-7.314 50.609-1.363 3.354-4.85 5.605-8.68 5.605-5.244 0-9.51-4.266-9.51-9.51v-44.489c0-14.336-11.664-26-26-26s-26 11.664-26 26v44.535c0 5.219-4.246 9.465-9.465 9.465-3.809 0-7.281-2.242-8.639-5.58-4.646-11.418-7.18-28.928-7.326-50.633-.025-3.684-.854-8.474-2.433-14.205l2.429-4.441 10.912-5.969c1.283-.703 2.08-2.047 2.08-3.51s-.797-2.807-2.08-3.51l-10.912-5.969-5.969-10.914c-1.402-2.566-5.617-2.566-7.02 0l-3.262 5.966c-7.444-9.33-10.896-20.991-9.657-33.036 2.135-20.754 18.707-37.654 39.406-40.188 11.631-1.422 23.178 1.586 32.527 8.482 3.207 2.363 7.686 2.361 10.893-.002 6.234-4.598 13.506-7.401 21.119-8.369 4.053 10.144 17.038 23.656 30.315 36.841l2.254 2.242c.75.75 1.768 1.172 2.828 1.172s2.078-.422 2.828-1.172l2.254-2.242c2.611-2.593 5.203-5.197 7.728-7.788 1.339 3.556 2.218 7.248 2.606 11.024 1.142 11.113-1.762 22.18-8.18 31.16z"/><path d="m168.995 119.387c-2.547 0-4.612 2.065-4.612 4.613s2.065 4.612 4.612 4.612 4.612-2.065 4.612-4.612-2.065-4.613-4.612-4.613z"/><path d="m112.995 119.387c-2.547 0-4.612 2.065-4.612 4.613s2.065 4.612 4.612 4.612 4.612-2.065 4.612-4.612-2.065-4.613-4.612-4.613z"/><path d="m161.371 145.816c-2.125-.629-4.346.564-4.982 2.682-.951 3.168-4.295 4.98-7.471 4.021-2.117-.621-4.344.564-4.982 2.682-.635 2.117.566 4.346 2.682 4.982 1.338.4 2.688.592 4.018.592 6.021 0 11.6-3.92 13.418-9.977.634-2.114-.567-4.345-2.683-4.982z"/><path d="m219.907 74.912c1.199 0 2.176.977 2.176 2.176 0 2.209 1.791 4 4 4s4-1.791 4-4c0-5.611-4.564-10.176-10.176-10.176-2.209 0-4 1.791-4 4s1.791 4 4 4z"/></g></svg>